<svg id="visual" viewBox="0 0 900 600" width="900" height="600" xmlns="http://www.w3.org/2000/svg" xmlns:xlink="http://www.w3.org/1999/xlink" version="1.1"><g transform="translate(888.4681281138053 -2.0424352249666384)"><path d="M133.7 -223.3C168.8 -211.4 189.6 -166.4 215 -123.7C240.3 -81 270.1 -40.5 264.7 -3.2C259.2 34.2 218.4 68.3 187.5 101.5C156.7 134.7 135.8 167 106.3 193C76.7 219.1 38.3 239.1 6.7 227.5C-25 216 -50 172.9 -90 152.9C-130 132.8 -184.9 135.6 -213.8 114C-242.6 92.3 -245.3 46.2 -240.2 2.9C-235.2 -40.3 -222.4 -80.7 -196.6 -107.5C-170.7 -134.4 -131.9 -147.7 -96.9 -159.7C-62 -171.7 -31 -182.4 9.2 -198.2C49.3 -214.1 98.7 -235.2 133.7 -223.3" fill="#1C3130"></path></g></svg>