<svg id="visual" viewBox="0 0 960 540" width="960" height="540" xmlns="http://www.w3.org/2000/svg" xmlns:xlink="http://www.w3.org/1999/xlink" version="1.1"><rect x="0" y="0" width="960" height="540" fill="#ffffff"></rect><g transform="translate(976.873429106804 -21.713860622172376)"><path d="M200.3 -199.9C263.5 -185.7 321.3 -126.3 317.2 -68C313.1 -9.7 247 47.4 201.8 107.7C156.5 168 131.9 231.5 88.4 250.9C44.8 270.3 -17.8 245.6 -94.1 230.1C-170.5 214.7 -260.6 208.6 -308.1 161.1C-355.6 113.5 -360.5 24.6 -338.8 -53C-317.1 -130.5 -268.8 -196.6 -207.9 -211.2C-147 -225.8 -73.5 -188.8 -2.5 -185.9C68.6 -183 137.1 -214.1 200.3 -199.9" fill="#10AF82"></path></g></svg>