<svg id="visual" viewBox="0 0 900 600" width="900" height="600" xmlns="http://www.w3.org/2000/svg" xmlns:xlink="http://www.w3.org/1999/xlink" version="1.1"><rect x="0" y="0" width="900" height="600" fill="#fff"></rect><defs><linearGradient id="grad1_0" x1="33.3%" y1="0%" x2="100%" y2="100%"><stop offset="20%" stop-color="#41b883" stop-opacity="1"></stop><stop offset="80%" stop-color="#41b883" stop-opacity="1"></stop></linearGradient></defs><defs><linearGradient id="grad1_1" x1="33.3%" y1="0%" x2="100%" y2="100%"><stop offset="20%" stop-color="#41b883" stop-opacity="1"></stop><stop offset="80%" stop-color="#ffffff" stop-opacity="1"></stop></linearGradient></defs><defs><linearGradient id="grad2_0" x1="0%" y1="0%" x2="66.7%" y2="100%"><stop offset="20%" stop-color="#41b883" stop-opacity="1"></stop><stop offset="80%" stop-color="#41b883" stop-opacity="1"></stop></linearGradient></defs><defs><linearGradient id="grad2_1" x1="0%" y1="0%" x2="66.7%" y2="100%"><stop offset="20%" stop-color="#ffffff" stop-opacity="1"></stop><stop offset="80%" stop-color="#41b883" stop-opacity="1"></stop></linearGradient></defs><g transform="translate(900, 0)"><path d="M0 432.7C-55.8 415.8 -111.6 399 -153.1 369.6C-194.5 340.1 -221.5 298.1 -265.2 265.2C-308.8 232.2 -369 208.3 -399.7 165.6C-430.4 122.9 -431.5 61.4 -432.7 0L0 0Z" fill="#a7dcbf"></path><path d="M0 216.3C-27.9 207.9 -55.8 199.5 -76.5 184.8C-97.2 170.1 -110.8 149.1 -132.6 132.6C-154.4 116.1 -184.5 104.1 -199.9 82.8C-215.2 61.4 -215.8 30.7 -216.3 0L0 0Z" fill="#41b883"></path></g><g transform="translate(0, 600)"><path d="M0 -432.7C52.4 -410.3 104.7 -388 150.4 -363.1C196.1 -338.2 235 -310.7 279.3 -279.3C323.6 -248 373.3 -212.8 399.7 -165.6C426.2 -118.4 429.4 -59.2 432.7 0L0 0Z" fill="#a7dcbf"></path><path d="M0 -216.3C26.2 -205.2 52.4 -194 75.2 -181.5C98 -169.1 117.5 -155.3 139.7 -139.7C161.8 -124 186.6 -106.4 199.9 -82.8C213.1 -59.2 214.7 -29.6 216.3 0L0 0Z" fill="#41b883"></path></g></svg>