<svg id="visual" viewBox="0 0 900 600" width="900" height="600" xmlns="http://www.w3.org/2000/svg" xmlns:xlink="http://www.w3.org/1999/xlink" version="1.1"><rect x="0" y="0" width="900" height="600" fill="#ffffff"></rect><defs><linearGradient id="grad1_0" x1="33.3%" y1="0%" x2="100%" y2="100%"><stop offset="20%" stop-color="#20bf9c" stop-opacity="1"></stop><stop offset="80%" stop-color="#20bf9c" stop-opacity="1"></stop></linearGradient></defs><defs><linearGradient id="grad1_1" x1="33.3%" y1="0%" x2="100%" y2="100%"><stop offset="20%" stop-color="#20bf9c" stop-opacity="1"></stop><stop offset="80%" stop-color="#a3e0cc" stop-opacity="1"></stop></linearGradient></defs><defs><linearGradient id="grad1_2" x1="33.3%" y1="0%" x2="100%" y2="100%"><stop offset="20%" stop-color="#ffffff" stop-opacity="1"></stop><stop offset="80%" stop-color="#a3e0cc" stop-opacity="1"></stop></linearGradient></defs><defs><linearGradient id="grad2_0" x1="0%" y1="0%" x2="66.7%" y2="100%"><stop offset="20%" stop-color="#20bf9c" stop-opacity="1"></stop><stop offset="80%" stop-color="#20bf9c" stop-opacity="1"></stop></linearGradient></defs><defs><linearGradient id="grad2_1" x1="0%" y1="0%" x2="66.7%" y2="100%"><stop offset="20%" stop-color="#a3e0cc" stop-opacity="1"></stop><stop offset="80%" stop-color="#20bf9c" stop-opacity="1"></stop></linearGradient></defs><defs><linearGradient id="grad2_2" x1="0%" y1="0%" x2="66.7%" y2="100%"><stop offset="20%" stop-color="#a3e0cc" stop-opacity="1"></stop><stop offset="80%" stop-color="#ffffff" stop-opacity="1"></stop></linearGradient></defs><g transform="translate(900, 0)"><path d="M0 459.7C-49.1 427.8 -98.2 395.9 -156.9 378.8C-215.6 361.7 -283.9 359.4 -325.1 325.1C-366.2 290.8 -380.3 224.4 -398.2 164.9C-416.1 105.4 -437.9 52.7 -459.7 0L0 0Z" fill="#d2f0e5"></path><path d="M0 306.5C-32.7 285.2 -65.5 263.9 -104.6 252.5C-143.7 241.1 -189.3 239.6 -216.7 216.7C-244.2 193.8 -253.5 149.6 -265.5 110C-277.4 70.3 -291.9 35.1 -306.5 0L0 0Z" fill="#6fd0b4"></path><path d="M0 153.2C-16.4 142.6 -32.7 132 -52.3 126.3C-71.9 120.6 -94.6 119.8 -108.4 108.4C-122.1 96.9 -126.8 74.8 -132.7 55C-138.7 35.1 -146 17.6 -153.2 0L0 0Z" fill="#20bf9c"></path></g><g transform="translate(0, 600)"><path d="M0 -459.7C54.1 -427.3 108.2 -394.9 150.4 -363.1C192.6 -331.2 222.8 -299.9 272.2 -272.2C321.7 -244.6 390.3 -220.7 424.7 -175.9C459.2 -131.2 459.4 -65.6 459.7 0L0 0Z" fill="#d2f0e5"></path><path d="M0 -306.5C36.1 -284.9 72.1 -263.3 100.3 -242.1C128.4 -220.8 148.5 -199.9 181.5 -181.5C214.4 -163.1 260.2 -147.1 283.1 -117.3C306.1 -87.4 306.3 -43.7 306.5 0L0 0Z" fill="#6fd0b4"></path><path d="M0 -153.2C18 -142.4 36.1 -131.6 50.1 -121C64.2 -110.4 74.3 -100 90.7 -90.7C107.2 -81.5 130.1 -73.6 141.6 -58.6C153.1 -43.7 153.1 -21.9 153.2 0L0 0Z" fill="#20bf9c"></path></g></svg>