<svg xmlns="http://www.w3.org/2000/svg" viewBox="0 0 500 500"><g id="freepik--background-simple--inject-164"><path d="M73.85,206.36s-40.47,61.05-11.7,153.13,112.44,115.57,162.08,90,56.89-58.85,97-83S444,343.16,475.9,276.72s-34.2-159.56-109-213.19S129.57,73.36,73.85,206.36Z" style="fill:#10AF82"></path><path d="M73.85,206.36s-40.47,61.05-11.7,153.13,112.44,115.57,162.08,90,56.89-58.85,97-83S444,343.16,475.9,276.72s-34.2-159.56-109-213.19S129.57,73.36,73.85,206.36Z" style="fill:#fff;opacity:0.7000000000000001"></path></g><g id="freepik--Plant--inject-164"><path d="M369.86,359.37c3,1.29,10.2,1.13,10.2,1.13s-1.55-4.74-1.69-5c-1.59-3.32-6.61-8.81-10.7-8.26a4.89,4.89,0,0,0-3.92,6.12C364.43,356.16,367.34,358.27,369.86,359.37Z" style="fill:#263238"></path><path d="M372.36,380.34c3.07.44,9.53-1.43,10-1.58a85.59,85.59,0,0,0,3.92,10.84c.89,2.06,1.85,4.1,2.84,6.14-.59-.86-1.13-1.63-1.21-1.73-2.41-2.78-8.71-6.75-12.5-5.14a4.88,4.88,0,0,0-2.16,6.94c1.4,2.55,4.76,3.81,7.48,4.21s8.3-1.09,9.76-1.5l1.16,2.34c1.87,3.72,3.75,7.43,5.49,11.13.61,1.3,1.16,2.6,1.72,3.91-.52-.77-1-1.41-1-1.5-2.41-2.79-8.7-6.75-12.5-5.14a4.88,4.88,0,0,0-2.16,6.93c1.4,2.56,4.76,3.82,7.48,4.21s7.76-.94,9.5-1.42c.54,1.35,1.07,2.7,1.53,4,.29.92.63,1.78.87,2.72s.52,1.84.77,2.74c.42,1.76.87,3.58,1.24,5.31.26,1.2.5,2.35.73,3.51-.59-1.31-1.81-3.83-1.94-4-1.95-3.12-7.58-8-11.57-7a4.88,4.88,0,0,0-3.19,6.52c1,2.74,4.13,4.49,6.76,5.3,2.89.88,9.31.07,10.11,0,.38,1.91.74,3.78,1,5.55.17.93.31,1.81.46,2.7h2.55c-.19-1-.39-2.06-.6-3.15-.39-1.95-.83-4-1.31-6.15a52.23,52.23,0,0,0,5.64-2.65c2.11,2.29,7.52,5,8.22,5.3-.74,1.81-1.47,3.57-2.19,5.21l-.64,1.44h2.69l.2-.49c.76-1.83,1.53-3.81,2.3-5.84.77.16,7.12,1.45,10.08.78,2.68-.61,5.93-2.13,7.13-4.78a4.87,4.87,0,0,0-2.69-6.74c-3.91-1.32-9.88,3.12-12.06,6.09-.13.17-1.32,2.22-2.05,3.53.31-.83.62-1.64.93-2.5.63-1.7,1.2-3.42,1.82-5.26.27-.9.55-1.81.82-2.73s.49-1.9.74-2.86c.53-2.23,1-4.52,1.34-6.83,1.49.54,6.81,2.39,9.57,2.2s6.18-1.2,7.77-3.64a4.88,4.88,0,0,0-1.64-7.08c-3.66-1.89-10.24,1.6-12.85,4.19-.16.16-1.82,2.24-2.71,3.4.22-1.4.44-2.78.62-4.2.5-4.09.89-8.25,1.29-12.39.13-1.27.26-2.53.4-3.8.53.2,6.8,2.54,9.89,2.32,2.75-.19,6.19-1.2,7.78-3.64a4.89,4.89,0,0,0-1.64-7.08c-3.67-1.89-10.24,1.6-12.85,4.2-.2.19-2.59,3.18-3.16,4,.3-2.78.62-5.56,1-8.28A84.67,84.67,0,0,1,435.79,378c.24.09,6.79,2.56,9.95,2.34,2.74-.2,6.18-1.2,7.77-3.64a4.88,4.88,0,0,0-1.64-7.08c-3.66-1.89-10.23,1.59-12.85,4.19-.2.21-2.77,3.42-3.19,4,.06-.21.1-.43.16-.63a62.42,62.42,0,0,1,4.32-10.31c.93-1.84,1.93-3.54,2.94-5.17,1.17.58,6.56,3.2,9.42,3.31s6.28-.51,8.13-2.76a4.89,4.89,0,0,0-.85-7.22c-3.44-2.28-10.35.46-13.23,2.76-.16.12-1.61,1.57-2.65,2.64.46-.73.93-1.5,1.39-2.19,1.73-2.6,3.47-4.87,5-6.87.89-1.13,1.72-2.13,2.51-3.07,1.45,0,7.28-.2,9.84-1.4s5.33-3.35,5.94-6.2a4.87,4.87,0,0,0-4.09-6c-4.1-.45-9,5.17-10.47,8.54-.13.29-1.63,5.07-1.55,5.07h.08c-.77.88-1.59,1.83-2.47,2.89-1.61,2-3.4,4.21-5.19,6.78a89.44,89.44,0,0,0-5.38,8.57,64.37,64.37,0,0,0-4.59,10.35s0,.08,0,.13c0-1.21,0-4.59-.06-4.85-.48-3.65-3.54-10.43-7.6-11.18a4.87,4.87,0,0,0-5.62,4.59c-.24,2.9,1.86,5.8,3.91,7.64,2.32,2.06,8.74,4.06,9.25,4.22a86.53,86.53,0,0,0-2.71,11.21c-.4,2.2-.72,4.44-1,6.68,0-1,0-2-.06-2.11-.47-3.65-3.53-10.43-7.59-11.18a4.88,4.88,0,0,0-5.63,4.59c-.24,2.9,1.87,5.81,3.92,7.64s7.52,3.68,9,4.14l-.33,2.58c-.49,4.14-1,8.28-1.56,12.32-.2,1.42-.46,2.81-.71,4.21,0-.93,0-1.71-.05-1.83-.48-3.65-3.54-10.43-7.59-11.18a4.88,4.88,0,0,0-5.63,4.59c-.24,2.9,1.86,5.81,3.92,7.64s7,3.49,8.71,4.05c-.31,1.42-.6,2.85-1,4.21-.26.93-.45,1.84-.77,2.75s-.59,1.82-.88,2.71c-.62,1.71-1.24,3.47-1.89,5.11-.44,1.15-.88,2.24-1.32,3.33.22-1.41.6-4.19.6-4.42a18.88,18.88,0,0,0-2.54-9.22,5.5,5.5,0,0,0-.07-1.08,4.87,4.87,0,0,0-6-4.14c-4,1.06-6.52,8.05-6.71,11.73,0,.22.13,2.59.25,4.08-.2-.87-.39-1.71-.6-2.6-.42-1.77-.89-3.51-1.39-5.39-.27-.9-.55-1.81-.82-2.73s-.65-1.85-1-2.79c-.79-2.15-1.69-4.3-2.65-6.44,1.55-.37,7-1.76,9.2-3.45s4.49-4.41,4.47-7.32a4.88,4.88,0,0,0-5.27-5c-4.1.45-7.66,7-8.4,10.59-.05.22-.29,2.87-.4,4.33-.58-1.29-1.16-2.57-1.8-3.85-1.83-3.69-3.8-7.37-5.75-11.05-.59-1.12-1.18-2.25-1.76-3.38.55-.13,7.07-1.64,9.53-3.53,2.18-1.67,4.5-4.41,4.47-7.32a4.88,4.88,0,0,0-5.27-5c-4.1.45-7.66,7-8.4,10.59-.06.27-.4,4.08-.44,5.05-1.29-2.48-2.56-5-3.7-7.48a86.48,86.48,0,0,1-4-10.39c.26-.06,7.08-1.61,9.59-3.54,2.18-1.68,4.5-4.42,4.48-7.33a4.87,4.87,0,0,0-5.27-5c-4.11.44-7.66,7-8.41,10.58-.06.28-.42,4.38-.44,5.13-.06-.2-.15-.41-.21-.62A62.83,62.83,0,0,1,381,367c-.23-2-.33-4-.39-5.93,1.3-.16,7.23-.95,9.68-2.44s5-3.89,5.26-6.79a4.88,4.88,0,0,0-4.69-5.54c-4.13,0-8.38,6.09-9.52,9.59-.06.19-.47,2.2-.75,3.67,0-.87-.05-1.77-.05-2.6,0-3.11.21-6,.4-8.5.13-1.44.27-2.73.41-3.94,1.19-.82,6-4.19,7.43-6.6s2.6-5.74,1.53-8.44a4.87,4.87,0,0,0-6.71-2.77c-3.67,1.9-4.63,9.27-4,12.91.06.31,1.44,5.13,1.5,5.09l.07-.05c-.16,1.16-.32,2.41-.46,3.78-.25,2.52-.51,5.38-.59,8.51a87.73,87.73,0,0,0,.24,10.12,63.49,63.49,0,0,0,1.88,11.16l0,.13c-.65-1-2.56-3.81-2.73-4-2.41-2.78-8.7-6.75-12.5-5.14a4.88,4.88,0,0,0-2.16,6.94C366.28,378.68,369.64,379.94,372.36,380.34Z" style="fill:#263238"></path><path d="M443.09,361c.06,0,1.31-4.81,1.36-5.13.5-3.64-.66-11-4.37-12.79a4.88,4.88,0,0,0-6.64,2.95c-1,2.73.26,6.09,1.76,8.4C437,357.1,443.08,361,443.09,361Z" style="fill:#263238"></path></g><g id="freepik--Line--inject-164"><rect x="73.43" y="445.84" width="395.29" height="1" style="fill:#263238"></rect><rect x="49.76" y="445.84" width="13.99" height="1" style="fill:#263238"></rect></g><g id="freepik--Character--inject-164"><path d="M210.65,296l-13-7.52,6.07-1.57a10.44,10.44,0,0,0,5-2.51,15.54,15.54,0,0,0,1.78-2.64c.89-1.53,1.67-2.85,2.66-3a1.31,1.31,0,0,1,1.09.3,8,8,0,0,1,2.36,8.51c-1.12,3.85-5.58,8-5.77,8.21Zm-10.34-7.17,10.2,5.93c1-1,4.33-4.43,5.23-7.5a7,7,0,0,0-2-7.45c-.16-.12-.25-.11-.29-.1-.54.1-1.34,1.47-2,2.56a16.65,16.65,0,0,1-1.91,2.81,11.25,11.25,0,0,1-5.58,2.81Z" style="fill:#263238"></path><polygon points="173.66 361.38 165.85 360.52 175.11 353.3 173.66 361.38" style="fill:#fff"></polygon><path d="M174.07,361.93l-9.5-1,11.26-8.79Zm-6.94-1.77,6.12.67,1.13-6.33Z" style="fill:#263238"></path><path d="M178,287.05l-.32,6.1s-6.26,25.51-5.94,26.45-.47,27.85.15,31,1.73,10.8,1.73,10.8,8.6-.31,12.51-2.35a58.77,58.77,0,0,0,9.08-6.57l-3.13-12.2a13,13,0,0,0,4.38-5,26.93,26.93,0,0,0,1.88-6.26l2.5-.78s3.29,1.72,4.85.15.32-3.75-.15-4.85-2.19-5-2.19-5,1.88,2.82,3.75,2.51,2.35-.16,2.51-1.41a20.62,20.62,0,0,0-.79-4.7s3.6,1.41,5,0a3.19,3.19,0,0,0,.78-3.44c-.15-.47-4.38-10-4.38-10s8.3,1.87,8.92,1.87a3.64,3.64,0,0,0,3.29-2.66c.62-2.19-6.26-4.85-12-9.07s-12.21-5.95-14.87-5.95S179.29,284.7,178,287.05Z" style="fill:#fff"></path><path d="M173.22,361.9l-.06-.45c0-.07-1.1-7.69-1.72-10.77-.37-1.89-.26-11.62-.16-20.2.06-5,.12-10.23,0-10.75-.31-.91,3.59-17.12,5.94-26.7l.36-6.21c1-1.86,7.07-2,15.89-1.73.92,0,1.64.05,2.07.05,2.66,0,9.13,1.64,15.16,6,2.05,1.5,4.25,2.81,6.19,4,3.81,2.25,6.56,3.88,6.05,5.66a4.17,4.17,0,0,1-3.77,3c-.55,0-5.67-1.14-8.06-1.68,1.1,2.48,3.86,8.75,4,9.15a3.72,3.72,0,0,1-.9,4c-1.17,1.17-3.4.77-4.65.41a15.13,15.13,0,0,1,.56,4c-.18,1.44-.88,1.54-2.15,1.72l-.76.12a3.14,3.14,0,0,1-2.27-.66c.43,1,.87,2,1.08,2.47l.16.36c.54,1.18,1.54,3.39-.11,5.05s-4.47.39-5.25,0l-2,.63a26.89,26.89,0,0,1-1.86,6.08,13.22,13.22,0,0,1-4.27,5l3.12,12.16-.23.21a59,59,0,0,1-9.18,6.64c-4,2.06-12.37,2.39-12.73,2.4Zm5.31-74.69-.31,6c-2.45,10-6,25.2-5.95,26.33.12.36.1,3.3,0,11-.09,8.11-.21,18.2.14,20,.54,2.66,1.42,8.68,1.67,10.37,1.8-.1,8.59-.57,11.85-2.27a57.25,57.25,0,0,0,8.75-6.3L191.55,340l.3-.2a12.57,12.57,0,0,0,4.2-4.79,27.19,27.19,0,0,0,1.84-6.13l0-.31,3-.93.18.09c.83.43,3.2,1.32,4.27.25s.54-2.53-.09-3.93l-.17-.37c-.47-1.1-2.19-5-2.19-5l.87-.48c.48.7,2,2.49,3.26,2.28l.79-.12c1.22-.17,1.22-.17,1.3-.85a18.45,18.45,0,0,0-.77-4.5l-.26-1,.93.36c.91.36,3.51,1.07,4.47.11a2.67,2.67,0,0,0,.66-2.93c-.12-.36-2.68-6.16-4.36-10l-.41-.91,1,.22c3.15.71,8.32,1.85,8.82,1.87a3.17,3.17,0,0,0,2.8-2.3c.29-1-2.57-2.74-5.6-4.53-2-1.17-4.18-2.48-6.27-4-5.52-4-11.84-5.85-14.57-5.85-.44,0-1.17,0-2.1-.06C190,286,179.72,285.61,178.53,287.21Z" style="fill:#263238"></path><path d="M208.87,300.9c-1.59-1.24-6-4.56-7.19-4.92-1-.3-10-1.33-15.43-2-2.62-.3-3.87-.44-4.46-.58v0c-.53-.12-.52-.25-.51-.48l0-.47h.48v.44l.1-.43c.2,0,2.18.27,4.47.53,7.35.84,14.6,1.68,15.61,2,1.6.48,6.92,4.62,7.52,5.09Z" style="fill:#263238"></path><path d="M208.44,315.16c-2.09-3.45-5.81-9.08-6.94-9.49-1.33-.48-14.35-2.75-21-3.89l.16-1c.8.13,19.47,3.3,21.22,3.93s6.52,8.38,7.45,9.92Z" style="fill:#263238"></path><path d="M202,318.1a23.56,23.56,0,0,0-4.26-3.05c-1.32-.61-13.21-3.42-19.31-4.82l.23-1c.72.17,17.75,4.09,19.5,4.89a24.45,24.45,0,0,1,4.5,3.21Z" style="fill:#263238"></path><polygon points="199.61 327.32 194.27 322.44 184.3 322.14 181.94 323.91 181.34 323.11 183.98 321.13 194.67 321.45 200.28 326.58 199.61 327.32" style="fill:#263238"></polygon><path d="M165.85,360.52l1.81,7.46s4.29,1.13,12.87-2.26A89.66,89.66,0,0,0,197.69,356l-.68-5.42S182.11,361.43,165.85,360.52Z" style="fill:#fff"></path><path d="M169.72,368.66a9.25,9.25,0,0,1-2.19-.2l-.29-.08-2-8.39.68,0c15.89.88,30.69-9.74,30.84-9.85l.68-.49.82,6.55-.24.17c-.08.06-8.73,6.4-17.27,9.77A30.37,30.37,0,0,1,169.72,368.66Zm-1.65-1.12c1.07.17,5.2.51,12.27-2.29a88.84,88.84,0,0,0,16.82-9.47l-.54-4.32c-3.09,2.06-16.12,10.08-30.13,9.59Z" style="fill:#263238"></path><path d="M198.14,354.2s-11.29,7.23-19.42,9.71A71.39,71.39,0,0,1,162,366.62s9.94,45.62,13.1,52.62,8.26,27.1,8.26,27.1h57s-33.87-65.49-35-70.46S198.14,354.2,198.14,354.2Z" style="fill:#263238"></path><path d="M240.37,446.84H183l-.1-.38c0-.2-5.12-20.14-8.23-27s-12.72-50.85-13.13-52.71l-.13-.59.61,0a71.34,71.34,0,0,0,16.57-2.69c8-2.43,19.19-9.58,19.3-9.65l.53-.34.21.59c.25.68,6.12,16.8,7.24,21.74s34.62,69.68,35,70.34l.38.73Zm-56.61-1h55.79c-3.91-7.56-33.59-65.1-34.67-69.85-1-4.36-5.91-18-7-21-2.33,1.45-11.91,7.26-19,9.43a72.94,72.94,0,0,1-16.24,2.71c1.17,5.33,10,45.48,12.93,51.93S183,443,183.76,445.84Z" style="fill:#263238"></path><path d="M221.28,185s-10.68,24.83-9.35,28,6.68,8.28,4.28,11.75-16.29,14.95-13.62,20.83,9.61,6.14,9.61,6.14-1.33,7.74.53,9.61l1.87,1.87s0,4,1.34,5.87,4.8,3.47,4.8,3.47-6.67,9.88-5.34,13.08,16.56,8.28,23,9.88,17.88-.53,17.88-.53l3.21,16,60.6-35.51-9.34-23.76s16-14.42,16.82-36.05-5.88-41.91-17.89-49.12-28.3-5.87-28.3-5.87a22.27,22.27,0,0,0-23.76-5.34C242.9,160.4,221.28,185,221.28,185Z" style="fill:#fff"></path><path d="M259.1,311.76l-3.24-16.22c-2.29.39-11.85,1.88-17.62.44-5.45-1.37-21.77-6.52-23.3-10.17-1.27-3.05,3.64-10.9,5.07-13.08a13.89,13.89,0,0,1-4.48-3.38c-1.24-1.74-1.4-5.08-1.42-6l-1.73-1.73c-1.76-1.76-1-7.6-.76-9.51-1.76-.2-7.14-1.23-9.49-6.39-2.13-4.7,5.27-12.37,10.16-17.45a41.86,41.86,0,0,0,3.5-3.86c1.51-2.18-.55-5.26-2.37-8a21.56,21.56,0,0,1-1.95-3.28c-1.37-3.31,8.25-25.87,9.35-28.43l.08-.13c.89-1,21.88-24.72,36.52-29.78a23,23,0,0,1,24.13,5.3c2.09-.13,17.15-.77,28.36,6,11.68,7,19,26.93,18.13,49.57-.75,20.08-14.66,34.17-16.73,36.16l9.37,23.84-.37.22Zm-2.45-17.38,3.16,15.81,59.63-34.94-9.31-23.68.25-.24c.16-.14,15.87-14.53,16.66-35.68.82-22.29-6.27-41.85-17.65-48.68-11.73-7-27.84-5.82-28-5.81l-.25,0L281,161a22,22,0,0,0-23.22-5.19c-14,4.85-34.85,28.09-36,29.43-4.1,9.53-10.23,25.39-9.31,27.57a21.49,21.49,0,0,0,1.85,3.12c2,3,4.26,6.37,2.37,9.11a45.13,45.13,0,0,1-3.61,4c-4.42,4.58-11.82,12.25-10,16.34,2.52,5.53,9.11,5.84,9.18,5.85l.57,0-.1.56c-.35,2.08-1,7.79.4,9.17l2,2v.21s0,3.86,1.25,5.58,4.57,3.29,4.6,3.31l.54.24-.33.49c-1.82,2.69-6.3,10.19-5.29,12.61,1.18,2.84,15.56,7.82,22.62,9.59,6.23,1.55,17.56-.52,17.67-.54Z" style="fill:#263238"></path><path d="M216.47,212.73s0,2.93,3.47,1.6,5.34-3.74,8-3.21,6.14,1.87,4-1.86-7.21-2.14-10.15-.81A17.7,17.7,0,0,0,216.47,212.73Z" style="fill:#263238"></path><path d="M218.35,215.18a2.32,2.32,0,0,1-1.36-.39,2.66,2.66,0,0,1-1-2.06v-.18l.12-.14a17.93,17.93,0,0,1,5.52-4.41c5.22-2.38,9-2,10.78,1,.77,1.35.93,2.2.5,2.77-.63.85-2.14.49-3.9.09l-1.14-.26c-1.48-.29-2.73.46-4.31,1.41a21.25,21.25,0,0,1-3.42,1.78A5.09,5.09,0,0,1,218.35,215.18ZM217,212.89a1.51,1.51,0,0,0,.57,1.08,2.49,2.49,0,0,0,2.2-.11,20.31,20.31,0,0,0,3.27-1.69c1.69-1,3.16-1.91,5-1.54l1.17.26c.92.22,2.63.62,2.87.29,0,0,.21-.31-.57-1.68-1.94-3.39-6.78-1.82-9.5-.59A16.82,16.82,0,0,0,217,212.89Z" style="fill:#263238"></path><path d="M222.76,234.86c-1.08,0-2.1-1.07-3.11-3.25a34.35,34.35,0,0,1-2.2-7.32,33.74,33.74,0,0,1-.69-7.6c.13-2.64.78-4,2-4.27s2.34.81,3.44,3.21A33.75,33.75,0,0,1,224.4,223h0a33.8,33.8,0,0,1,.68,7.61c-.12,2.63-.77,4-2,4.27Zm-3.6-20.37c-.44.85-.77,4.15.26,9.42s2.55,8.21,3.27,8.84c.44-.85.76-4.15-.26-9.42h0C221.41,218.05,219.88,215.12,219.16,214.49Z" style="fill:#263238"></path><rect x="223.09" y="218.27" width="51.11" height="2" transform="translate(-14.31 17.38) rotate(-3.89)" style="fill:#263238"></rect><path d="M215.67,254.64a5.1,5.1,0,0,0-6.14,4.27,6.15,6.15,0,0,0,5.07,7.48c1.34,0,3.74-1.6,8,.27s8,4.27,8,8.81-1.6,7.74-5.07,7.47-5.87-6.67-7.74-5.87-6.68,8.28-3.47,13.35,24.56,14.68,31.5,14.42,32.84-22.7,36.31-31-1.07-11.75-1.87-14.15-8.81-22.7-8.81-28.57,3.74-19.22,11.21-19.76,12,15.49,9.62,21.36a20.63,20.63,0,0,1-6.14,8.54s-1.61,17.09,2.93,20,16.55,6.67,22.16,6.94,7.74,1.07,10.68-4.54-2.14-8-.53-11.21,14.68-19,16-35.78-2.94-30.43-10.15-41.11-22.69-20.56-27.77-21.36a69.88,69.88,0,0,1-10.94-2.94s5.6-2.4,1.33-6.14-12.81-5.61-26.7-1.07S244,154,244,154s.8-7.21-7.21-4-21.89,17.62-20,27,6.14,9.08,12,7.21,14.95-5.87,19-5.34,6.67.8-.53,6.94-17.09,12.55-11.75,15.49,20.29,11.21,22.16,17.35-6.41,49.13-9.35,54.2-8.54,6.67-12,2.93-6.41-13.34-12.28-17.62S215.67,254.64,215.67,254.64Z" style="fill:#263238"></path><path d="M245.55,305.34c-7.53,0-28.48-9.65-31.64-14.66-1.64-2.6-1.22-5.59-.59-7.64,1-3.12,3-5.89,4.29-6.43s2.33.83,3.62,2.39,2.73,3.32,4.36,3.45a3.44,3.44,0,0,0,2.69-.87c1.19-1.1,1.84-3.27,1.84-6.11,0-4.38-3.7-6.6-7.71-8.35a8.88,8.88,0,0,0-6.46-.47,5.75,5.75,0,0,1-1.35.24,6.62,6.62,0,0,1-4.3-2.44,6.55,6.55,0,0,1-1.26-5.63,5.71,5.71,0,0,1,2.37-3.86,6.27,6.27,0,0,1,4.24-.83c.65-.14,3.24-.31,8.59,3.58,3.68,2.67,6.19,7.32,8.41,11.41a33.44,33.44,0,0,0,3.95,6.27,5.55,5.55,0,0,0,4.83,1.86,8.93,8.93,0,0,0,6.38-4.7c3-5.12,11.05-48,9.3-53.8-1.83-6-17-14.33-21.92-17.07a3,3,0,0,1-1.77-2.33c-.26-2.88,4.25-6.52,9.48-10.72,1.32-1.07,2.69-2.17,3.95-3.25,3.84-3.27,4.47-4.55,4.32-5s-1.87-.79-3.38-1h-.15c-2.82-.38-8.51,1.68-13.52,3.5-1.88.68-3.65,1.32-5.21,1.82-3.49,1.1-6.27,1.57-8.49.26-2-1.18-3.34-3.68-4.17-7.85-2-9.83,12.24-24.3,20.33-27.53,2.78-1.11,4.88-1.14,6.27-.09a4.73,4.73,0,0,1,1.62,3.45c2-1.64,7.64-5.67,18.57-9.24,16.37-5.36,24.06-1.57,27.18,1.16,1.35,1.18,1.93,2.38,1.74,3.58a4.51,4.51,0,0,1-2.18,2.84,66.71,66.71,0,0,0,9.8,2.54c5.06.8,20.76,10.69,28.1,21.58,8,11.89,11.47,25.83,10.23,41.43-1.08,13.72-9.85,26.65-14.07,32.86-.95,1.4-1.7,2.51-2,3.1-.58,1.16-.11,2.22.47,3.56.83,1.89,1.86,4.24.06,7.66-2.78,5.32-5,5.17-9.51,4.9l-1.63-.09c-5.71-.27-17.86-4.08-22.41-7-4.74-3.07-3.23-19.78-3.16-20.49l0-.23.18-.13a20.25,20.25,0,0,0,6-8.33c1.65-4-.09-12.6-3.5-17.31-1.18-1.63-3.12-3.54-5.61-3.36-7.09.51-10.75,13.73-10.75,19.26,0,4.77,5.47,19.46,7.81,25.73.48,1.32.84,2.26,1,2.68a8.42,8.42,0,0,0,.89,1.67c1.5,2.44,3.77,6.13,1,12.83-3.69,8.79-29.79,31-36.75,31.28ZM218.14,277.5a.35.35,0,0,0-.14,0c-.9.39-2.8,2.84-3.72,5.8a8.19,8.19,0,0,0,.48,6.82c3,4.77,24.17,14.49,31.06,14.19,6.56-.26,32.37-22.32,35.87-30.67,2.61-6.22.59-9.51-.89-11.92a9.06,9.06,0,0,1-1-1.88c-.14-.41-.49-1.34-1-2.64-2.36-6.32-7.87-21.13-7.87-26.08,0-6.59,4.12-19.72,11.68-20.26,2.33-.17,4.58,1.14,6.49,3.78,3.58,4.94,5.37,14,3.62,18.27a21.45,21.45,0,0,1-6.13,8.62c-.42,4.83-.73,17.1,2.73,19.34,4.45,2.87,16.33,6.59,21.91,6.86l1.65.09c4.43.28,6.09.38,8.57-4.36,1.57-3,.72-4.93-.09-6.8-.64-1.45-1.24-2.83-.45-4.41a36.37,36.37,0,0,1,2.07-3.21c4.16-6.15,12.83-18.92,13.9-32.38,1.22-15.37-2.17-29.1-10.06-40.79-7.22-10.69-22.52-20.37-27.43-21.15a71.41,71.41,0,0,1-11-3l-1.19-.43,1.16-.5s2.36-1,2.62-2.64c.13-.83-.35-1.73-1.42-2.66-3-2.6-10.31-6.17-26.21-1-13.61,4.45-19,9.7-19,9.75l-1,1,.15-1.41s.26-2.58-1.23-3.71c-1.08-.83-2.86-.75-5.29.22-7.62,3.05-21.56,17.2-19.72,26.4.76,3.82,2,6.17,3.7,7.19,1.9,1.12,4.44.67,7.67-.36,1.55-.49,3.31-1.13,5.18-1.8,5.37-1.95,10.93-4,14-3.56l.14,0c2.16.29,3.86.52,4.21,1.71s-1,3-4.63,6.09c-1.28,1.09-2.65,2.2-4,3.27-4.58,3.69-9.31,7.5-9.11,9.85a2.07,2.07,0,0,0,1.26,1.55c5.06,2.78,20.45,11.24,22.4,17.64,2,6.61-6.64,49.84-9.39,54.6a9.93,9.93,0,0,1-7.13,5.19,6.62,6.62,0,0,1-5.69-2.17,34.32,34.32,0,0,1-4.09-6.47c-2.16-4-4.62-8.54-8.12-11.08-5.49-4-7.81-3.4-7.83-3.4l-.12,0-.13,0a5.35,5.35,0,0,0-3.61.66A4.81,4.81,0,0,0,210,259a5.54,5.54,0,0,0,1.06,4.81,5.74,5.74,0,0,0,3.52,2.07,5.49,5.49,0,0,0,1.11-.21,9.8,9.8,0,0,1,7.1.52c4.11,1.8,8.31,4.3,8.31,9.27,0,3.17-.75,5.54-2.16,6.85a4.38,4.38,0,0,1-3.45,1.12c-2.06-.16-3.65-2.09-5-3.8C219.63,278.63,218.7,277.5,218.14,277.5Z" style="fill:#263238"></path><path d="M279,243.4v-1a67.87,67.87,0,0,0,7.08-1.59l.25,1A72.82,72.82,0,0,1,279,243.4Z" style="fill:#263238"></path><path d="M251.09,319.25s-11.92,9.69-13.6,13.78-1.3,11.92-1.3,12.67-9.13,7.63-12.3,16.95-3.35,20.86-3.35,20.86l20.67-37.63L253,322Z" style="fill:#10AF82"></path><path d="M220,385.51l0-2c0-.12.22-11.74,3.38-21,2.39-7,8.11-12.69,10.85-15.41a19.12,19.12,0,0,0,1.41-1.47v-.28c-.14-5.75.31-9.95,1.35-12.49,1.7-4.16,13.25-13.58,13.74-14l.43-.34,2.32,3.49L241.66,346.1ZM251,320c-2.13,1.76-11.59,9.73-13,13.23-.67,1.66-1.44,5.09-1.27,12.09v.39c0,.38-.3.69-1.71,2.09-2.7,2.67-8.3,8.22-10.61,15s-3,14.83-3.24,18.58l19.65-35.75,11.59-23.56Z" style="fill:#263238"></path><path d="M300.84,279.21s-52.33,29.1-51.53,32.83,3.74,14.69,3.74,14.69,41.11-32.57,48.59-36.58,23.23-9.88,23.23-9.88-2.94-7.74-3.74-8.54S306.71,276.8,300.84,279.21Z" style="fill:#fff"></path><path d="M252.76,327.59l-.19-.73c0-.11-2.95-11-3.75-14.71-.17-.81-.57-2.69,25.7-18.36,12.84-7.65,25.94-15,26.08-15l0,0,3.27-1.35c14.14-5.88,16.89-6.69,17.56-6,.84.83,3.36,7.41,3.86,8.72l.17.47-.47.17c-.16.06-15.8,5.91-23.16,9.85s-48.11,36.2-48.52,36.53Zm48.3-47.93c-24.82,13.8-51.21,29.81-51.26,32.29.67,3.11,2.87,11.4,3.54,13.91,5.28-4.17,41-32.39,48.06-36.15,6.7-3.59,20.14-8.71,22.82-9.73a64.94,64.94,0,0,0-3.39-7.83h-.06c-1.64,0-11.24,4-16.46,6.16Zm19.84-7.5Z" style="fill:#263238"></path><path d="M255.45,316.32l-41.91,79.82-30.17,50.2H364.11s-1.33-41.65-4-68.08S338,300.3,333.94,295s-5.07-8-5.07-8-.8-8.55-3.74-9.88S293.1,285.61,255.45,316.32Z" style="fill:#263238"></path><path d="M364.63,446.84H182.48l30.63-50.95L255.06,316l.08-.06c36.79-30,66.56-41,70.2-39.32,3,1.38,3.9,9,4,10.21a44.12,44.12,0,0,0,5,7.84c4.13,5.5,23.62,57.38,26.27,83.55s4,67.69,4,68.11Zm-180.38-1H363.6c-.17-4.88-1.51-43-4-67.53-2.63-26-22-77.6-26.07-83.05s-5.09-8-5.13-8.13l0-.14c-.21-2.29-1.25-8.47-3.44-9.47-2.67-1.21-31.4,8.41-69.08,39.12L214,396.38Z" style="fill:#263238"></path></g><g id="freepik--Gears--inject-164"><polygon points="162.01 365.85 169.46 362.92 169.91 366.53 162.01 365.85" style="fill:#fff"></polygon><path d="M170.49,367.08l-10.65-.91,10-4Zm-6.31-1.54,5.16.44-.29-2.36Z" style="fill:#263238"></path><path d="M295.33,177.23v-3.11h-3.57a16,16,0,0,0-1.36-5l3.11-1.79L292,164.6l-3.11,1.79a15.83,15.83,0,0,0-3.68-3.67l1.8-3.11-2.7-1.56-1.8,3.1a15.94,15.94,0,0,0-5-1.35v-3.58h-3.12v3.58a15.94,15.94,0,0,0-5,1.35l-1.8-3.1-2.69,1.56,1.79,3.11a15.83,15.83,0,0,0-3.68,3.67l-3.11-1.79-1.55,2.7,3.1,1.79a15.73,15.73,0,0,0-1.35,5h-3.58v3.11H260a15.73,15.73,0,0,0,1.35,5l-3.1,1.79,1.55,2.7,3.11-1.79a16,16,0,0,0,3.68,3.67l-1.79,3.11,2.69,1.56,1.8-3.11a15.69,15.69,0,0,0,5,1.36v3.58h3.12v-3.58a15.69,15.69,0,0,0,5-1.36l1.8,3.11,2.7-1.56-1.8-3.11a16,16,0,0,0,3.68-3.67l3.11,1.79,1.56-2.7-3.11-1.79a16,16,0,0,0,1.36-5Zm-19.45-13.76A12.2,12.2,0,0,1,288,174.6h-9.84a2.56,2.56,0,0,0-2.31-1.48,2.21,2.21,0,0,0-.37,0l-5.12-8.37A12.05,12.05,0,0,1,275.88,163.47Zm-12.2,12.2a12.17,12.17,0,0,1,5.19-10L274,174a2.53,2.53,0,0,0-.63,1.66,2.57,2.57,0,0,0,.52,1.54l-5,8.44A12.19,12.19,0,0,1,263.68,175.67Zm12.2,12.21a12.22,12.22,0,0,1-5.5-1.32l5-8.4a2.35,2.35,0,0,0,.54.06,2.53,2.53,0,0,0,2.44-1.85h9.73A12.19,12.19,0,0,1,275.88,187.88Z" style="fill:#d1d1d1"></path><path d="M303.6,218.05h3.11v-3.58a15.75,15.75,0,0,0,5-1.36l1.79,3.11,2.7-1.57-1.8-3.1a16.07,16.07,0,0,0,3.68-3.68l3.11,1.79,1.55-2.7-3.1-1.79a16,16,0,0,0,1.35-5h3.57V197H321a16,16,0,0,0-1.36-5l3.1-1.79-1.56-2.7-3.1,1.8a16.27,16.27,0,0,0-3.68-3.68l1.79-3.11-2.7-1.55-1.79,3.1a15.73,15.73,0,0,0-5-1.35v-3.58h-3.12v3.57a16,16,0,0,0-5,1.36l-1.8-3.1-2.69,1.56,1.79,3.1a15.83,15.83,0,0,0-3.67,3.68l-3.11-1.79-1.56,2.7,3.11,1.79a15.73,15.73,0,0,0-1.35,5h-3.58v3.12h3.58a15.76,15.76,0,0,0,1.36,5L287.52,207l1.56,2.7,3.11-1.79a16.22,16.22,0,0,0,3.68,3.67l-1.79,3.11,2.7,1.56,1.79-3.11a15.74,15.74,0,0,0,5,1.35Zm13.75-19.46a12.2,12.2,0,0,1-11.12,12.15V200.9a2.54,2.54,0,0,0,1.47-2.31c0-.12,0-.24,0-.36L316,193.1A12.31,12.31,0,0,1,317.35,198.59Zm-12.22-12.2a12.19,12.19,0,0,1,10,5.19l-8.32,5.1a2.49,2.49,0,0,0-1.66-.63,2.54,2.54,0,0,0-1.53.52l-8.44-5A12.19,12.19,0,0,1,305.13,186.39ZM292.94,198.6a12.1,12.1,0,0,1,1.32-5.5l8.39,5a2.51,2.51,0,0,0-.06.55,2.53,2.53,0,0,0,1.86,2.44v9.73A12.2,12.2,0,0,1,292.94,198.6Z" style="fill:#d1d1d1"></path></g></svg>