<svg id="visual" viewBox="0 0 960 540" width="960" height="540" xmlns="http://www.w3.org/2000/svg" xmlns:xlink="http://www.w3.org/1999/xlink" version="1.1"><rect x="0" y="0" width="960" height="540" fill="#ffffff"></rect><defs><linearGradient id="grad1_0" x1="43.8%" y1="100%" x2="100%" y2="0%"><stop offset="14.444444444444446%" stop-color="#10AF82" stop-opacity="1"></stop><stop offset="85.55555555555554%" stop-color="#10AF82" stop-opacity="1"></stop></linearGradient></defs><defs><linearGradient id="grad1_1" x1="43.8%" y1="100%" x2="100%" y2="0%"><stop offset="14.444444444444446%" stop-color="#10AF82" stop-opacity="1"></stop><stop offset="85.55555555555554%" stop-color="#ffffff" stop-opacity="1"></stop></linearGradient></defs><defs><linearGradient id="grad2_0" x1="0%" y1="100%" x2="56.3%" y2="0%"><stop offset="14.444444444444446%" stop-color="#10AF82" stop-opacity="1"></stop><stop offset="85.55555555555554%" stop-color="#10AF82" stop-opacity="1"></stop></linearGradient></defs><defs><linearGradient id="grad2_1" x1="0%" y1="100%" x2="56.3%" y2="0%"><stop offset="14.444444444444446%" stop-color="#ffffff" stop-opacity="1"></stop><stop offset="85.55555555555554%" stop-color="#10AF82" stop-opacity="1"></stop></linearGradient></defs><g transform="translate(960, 540)"><path d="M-270 0C-244.7 -36.4 -219.4 -72.8 -200.1 -115.5C-180.7 -158.2 -167.3 -207 -135 -233.8C-102.7 -260.6 -51.3 -265.3 0 -270L0 0Z" fill="#a7dcbf"></path><path d="M-135 0C-122.3 -18.2 -109.7 -36.4 -100 -57.8C-90.4 -79.1 -83.7 -103.5 -67.5 -116.9C-51.3 -130.3 -25.7 -132.7 0 -135L0 0Z" fill="#10AF82"></path></g><g transform="translate(0, 0)"><path d="M270 0C208.7 15.6 147.3 31.2 132.5 76.5C117.7 121.8 149.3 196.6 135 233.8C120.7 271 60.3 270.5 0 270L0 0Z" fill="#a7dcbf"></path><path d="M135 0C104.3 7.8 73.7 15.6 66.3 38.2C58.8 60.9 74.7 98.3 67.5 116.9C60.3 135.5 30.2 135.3 0 135L0 0Z" fill="#10AF82"></path></g></svg>